# xmcd
#
# Track frame offsets: 
#        150
#        29476
#        50928
#        67213
#        96799
#        113638
#        134147
#        159714
#        180259
#        195964
#
# Disc length: 2818 seconds
#
# Revision: 0
# Processed by: cddbd v1.5.2PL0 Copyright (c) Steve Scherf et al.
# Submitted via: ExactAudioCopy v1.0b3
#
DISCID=900b000a
DTITLE=Scott Pemberton Trio - SP3
DYEAR=2011
DGENRE=Blues
TTITLE0=Awfully Nice Day
TTITLE1=Sweet Back
TTITLE2=Let's do it
TTITLE3=One Time
TTITLE4=Sandy Dancer
TTITLE5=Dear Prudence
TTITLE6=Kindness
TTITLE7=Love Buzz
TTITLE8=Love Song
TTITLE9=Meow Meow
EXTD=
EXTT0=
EXTT1=
EXTT2=
EXTT3=
EXTT4=
EXTT5=
EXTT6=
EXTT7=
EXTT8=
EXTT9=
PLAYORDER=
